<mxfile host="app.diagrams.net" modified="2024-03-14T08:23:33.503Z" agent="Mozilla/5.0 (Windows NT 10.0; Win64; x64) AppleWebKit/537.36 (KHTML, like Gecko) Chrome/122.0.0.0 Safari/537.36" version="24.0.6" etag="jc3ItI4SmnMtVbWHAkjF" type="github">
  <diagram name="Page-1" id="_haE8Lw7t_zfTAj-2QSG">
    <mxGraphModel>
      <root>
        <mxCell id="0" />
        <mxCell id="1" parent="0" />
      </root>
    </mxGraphModel>
  </diagram>
</mxfile>
